<?xml version="1.0" standalone="no"?>
<!DOCTYPE svg PUBLIC "-//W3C//DTD SVG 20010904//EN"
 "http://www.w3.org/TR/2001/REC-SVG-20010904/DTD/svg10.dtd">
<svg version="1.0" xmlns="http://www.w3.org/2000/svg"
 width="500.000000pt" height="500.000000pt" viewBox="0 0 500.000000 500.000000"
 preserveAspectRatio="xMidYMid meet">
<metadata>
Created by potrace 1.16, written by Peter Selinger 2001-2019
</metadata>
<g transform="translate(0.000000,500.000000) scale(0.100000,-0.100000)"
fill="#000000" stroke="none">
<path d="M2889 3731 c13 -11 27 -21 31 -21 10 0 102 -92 125 -125 11 -16 29
-38 41 -50 30 -33 84 -116 84 -132 0 -7 10 -34 21 -58 12 -25 21 -58 21 -73 0
-15 4 -31 8 -37 16 -22 18 -278 2 -299 -5 -6 -10 -30 -11 -54 0 -24 -8 -53
-16 -65 -8 -12 -15 -34 -15 -49 0 -16 -5 -28 -11 -28 -5 0 -7 -5 -4 -10 4 -6
10 -8 15 -5 4 3 7 -2 6 -11 -1 -9 -10 -20 -19 -26 -9 -5 -17 -18 -17 -28 0
-32 40 -23 53 12 6 16 8 16 38 1 29 -14 32 -14 41 1 5 9 17 16 27 16 10 0 24
7 31 16 8 8 29 22 48 30 20 8 42 23 49 34 8 11 18 20 23 20 5 0 20 10 33 23
33 30 69 57 78 57 15 0 21 -89 9 -145 -13 -62 -8 -79 15 -49 11 15 15 16 16 4
1 -8 1 -18 1 -22 -1 -3 6 -12 14 -19 14 -11 15 -10 12 7 -1 12 3 28 10 37 11
13 12 36 2 122 -22 209 -119 426 -267 599 -23 27 -39 54 -36 59 3 6 1 7 -4 4
-13 -8 -46 27 -36 38 5 4 3 5 -3 2 -6 -4 -22 3 -35 14 -13 11 -35 30 -49 42
-14 12 -45 35 -70 51 -25 16 -56 37 -70 46 -28 19 -149 73 -190 85 l-25 7 24
-21z"/>
<path d="M2391 3454 c-30 -8 -59 -18 -65 -23 -6 -5 -21 -12 -33 -15 -39 -12
-103 -79 -141 -146 -36 -63 -36 -67 -36 -170 1 -99 2 -108 33 -163 36 -65 94
-128 137 -150 16 -8 54 -22 86 -31 172 -49 340 25 427 190 28 54 31 67 31 154
0 89 -2 100 -32 157 -49 92 -99 142 -171 170 -23 9 -46 19 -52 23 -22 17 -131
19 -184 4z"/>
<path d="M2008 2447 c26 -27 30 -36 18 -40 -9 -4 -25 4 -38 18 -27 28 -38 31
-38 10 0 -8 -4 -15 -10 -15 -5 0 -10 4 -10 10 0 5 -11 9 -25 8 -14 -1 -25 -8
-25 -15 0 -8 -7 -16 -17 -20 -14 -5 -13 -7 5 -14 17 -7 21 -14 16 -37 -6 -31
18 -102 35 -102 6 0 13 -17 17 -37 4 -21 10 -43 15 -48 4 -6 9 -23 11 -37 2
-15 12 -36 23 -47 10 -12 16 -23 13 -26 -15 -15 -227 96 -279 145 -8 8 -39 35
-68 60 -39 34 -136 144 -166 188 -7 10 -35 -14 -41 -36 -5 -20 -8 -23 -11 -9
-4 16 -25 22 -69 18 -14 -1 -24 6 -29 21 -6 20 -8 20 -12 5 -2 -9 -9 -15 -13
-12 -18 11 -20 -41 -4 -105 9 -36 16 -77 17 -92 1 -16 6 -28 10 -28 5 0 5 -4
2 -10 -3 -5 -2 -10 2 -10 8 0 39 -71 34 -78 -1 -1 10 -23 24 -50 14 -26 25
-50 25 -54 0 -5 9 -17 20 -28 11 -11 20 -27 20 -35 0 -8 4 -15 10 -15 5 0 22
-19 37 -42 16 -23 38 -53 51 -66 12 -14 22 -29 22 -33 0 -5 6 -9 13 -9 6 0 25
-18 41 -40 17 -22 35 -40 42 -40 7 0 25 -15 40 -32 15 -18 28 -31 30 -28 1 3
15 -6 31 -20 15 -13 30 -24 33 -23 3 0 18 -9 35 -20 16 -12 36 -22 43 -23 8
-2 31 -14 53 -28 21 -14 44 -26 50 -26 7 0 37 -12 66 -26 30 -14 57 -23 60
-20 3 2 17 0 32 -5 36 -14 114 -28 123 -22 5 2 -10 22 -33 44 -22 21 -38 43
-34 48 3 6 -3 15 -13 20 -16 9 -32 46 -36 86 -1 6 -5 15 -8 21 -4 5 -10 156
-13 335 -4 178 -11 340 -16 360 -10 40 -43 77 -104 116 l-40 25 33 -35z"/>
</g>
</svg>
